<?xml version="1.0" encoding="UTF-8" standalone="no"?>
<!-- Created with Inkscape (http://www.inkscape.org/) -->

<svg
   version="1.1"
   id="svg9"
   xml:space="preserve"
   width="170.66667"
   height="170.66667"
   viewBox="0 0 170.66667 170.66667"
   sodipodi:docname="RadiYoSVG.svg"
   inkscape:export-filename="C:\Users\robot\Pictures\RadiYo16.png"
   inkscape:export-xdpi="87.49337"
   inkscape:export-ydpi="87.49337"
   inkscape:version="1.1.1 (3bf5ae0d25, 2021-09-20)"
   xmlns:inkscape="http://www.inkscape.org/namespaces/inkscape"
   xmlns:sodipodi="http://sodipodi.sourceforge.net/DTD/sodipodi-0.dtd"
   xmlns="http://www.w3.org/2000/svg"
   xmlns:svg="http://www.w3.org/2000/svg"><defs
     id="defs13"><linearGradient
       id="linearGradient7514"
       inkscape:swatch="solid"><stop
         style="stop-color:#66c7ae;stop-opacity:1;"
         offset="0"
         id="stop7512" /></linearGradient><clipPath
       clipPathUnits="userSpaceOnUse"
       id="clipPath23"><path
         d="M 0,128 H 128 V 0 H 0 Z"
         id="path21" /></clipPath><clipPath
       clipPathUnits="userSpaceOnUse"
       id="clipPath31"><path
         d="M 11.3333,116.667 H 116.667 V 11.3333 H 11.3333 Z"
         id="path29" /></clipPath><clipPath
       clipPathUnits="userSpaceOnUse"
       id="clipPath47"><path
         d="m 13.994,103.051 h 93.401 V 31.5746 H 13.994 Z"
         id="path45" /></clipPath></defs><sodipodi:namedview
     id="namedview11"
     pagecolor="#505050"
     bordercolor="#eeeeee"
     borderopacity="1"
     inkscape:pageshadow="0"
     inkscape:pageopacity="0"
     inkscape:pagecheckerboard="0"
     showgrid="false"
     inkscape:zoom="4.5878905"
     inkscape:cx="39.451683"
     inkscape:cy="85.333336"
     inkscape:window-width="1920"
     inkscape:window-height="1001"
     inkscape:window-x="-9"
     inkscape:window-y="-9"
     inkscape:window-maximized="1"
     inkscape:current-layer="g19" /><g
     id="g15"
     inkscape:groupmode="layer"
     inkscape:label="Isiahl"
     transform="matrix(1.3333333,0,0,-1.3333333,0,170.66667)"><g
       id="g17"
       style="opacity:1"><g
         id="g19"
         clip-path="url(#clipPath23)"
         inkscape:label="Background"><g
           id="g25"
           style="opacity:1;fill:#f7c6b1;fill-opacity:1"
           inkscape:label="g25"><g
             id="g27"
             style="fill:#f7c6b1;fill-opacity:1" /><g
             id="g39"
             style="fill:#f7c6b1;fill-opacity:1"><g
               clip-path="url(#clipPath31)"
               opacity="1"
               id="g37"
               style="fill:#f7c6b1;fill-opacity:1"><g
                 transform="translate(116.667,64)"
                 id="g35"
                 style="fill:#f7c6b1;fill-opacity:1"><path
                   d="m 0,0 c 0,-29.087 -23.58,-52.667 -52.667,-52.667 -29.087,0 -52.666,23.58 -52.666,52.667 0,29.087 23.579,52.667 52.666,52.667 C -23.58,52.667 0,29.087 0,0"
                   style="fill:#f7c6b1;fill-opacity:1;fill-rule:nonzero;stroke:none"
                   id="path33" /></g></g></g></g><g
           id="g41"><g
             id="g43" /><g
             id="g159"><g
               clip-path="url(#clipPath47)"
               id="g157"><g
                 transform="translate(62.6958,60.6055)"
                 id="g51"><path
                   d="m 0,0 c -0.19,4.042 -1.633,8.019 -4.21,11.139 -2.024,2.435 -4.711,4.275 -7.675,5.361 -8.437,3.083 -18.012,-0.757 -22.324,-8.528 -2.719,-4.894 -3.098,-11.031 -0.96,-16.211 2.137,-5.172 6.751,-9.268 12.152,-10.747 5.402,-1.472 11.474,-0.273 15.884,3.179 2.999,2.351 5.219,5.664 6.333,9.307 0.639,2.098 0.904,4.309 0.8,6.5 m 10.679,-2.765 c 0.082,0.278 0.112,0.56 0.098,0.84 -0.027,0.527 -0.203,1.036 -0.531,1.441 C 9.984,-0.172 9.646,0.065 9.27,0.204 8.195,0.605 6.981,0.113 6.435,-0.891 6.089,-1.523 6.042,-2.317 6.314,-2.979 c 0.271,-0.672 0.853,-1.205 1.538,-1.389 0.688,-0.194 1.461,-0.039 2.019,0.402 0.388,0.31 0.665,0.737 0.808,1.201 m 12.902,0.848 C 23.533,-0.988 23.205,-0.082 22.624,0.635 22.173,1.192 21.563,1.608 20.899,1.864 19,2.567 16.839,1.691 15.876,-0.09 c -0.611,-1.112 -0.697,-2.522 -0.214,-3.701 0.483,-1.188 1.515,-2.129 2.737,-2.47 1.212,-0.333 2.578,-0.061 3.574,0.729 0.676,0.535 1.173,1.29 1.429,2.13 0.142,0.481 0.195,0.985 0.179,1.485 m 9.698,0.428 c 0.083,0.259 0.121,0.533 0.107,0.805 -0.026,0.508 -0.209,0.999 -0.537,1.387 -0.253,0.304 -0.599,0.541 -0.974,0.671 -1.066,0.385 -2.29,-0.092 -2.836,-1.068 -0.348,-0.607 -0.396,-1.374 -0.125,-2.02 0.27,-0.644 0.858,-1.15 1.544,-1.335 0.686,-0.184 1.453,-0.04 2.019,0.394 0.381,0.292 0.657,0.71 0.802,1.166 m -0.29,-18.83 c -14.618,-2.333 -48.701,-5.025 -63.099,-4.63 -1.69,0.053 -3.11,0.139 -4.189,0.277 -0.769,0.101 -1.365,0.22 -1.776,0.365 -7.279,2.597 -7.881,37.939 -6.274,40.878 1.325,2.432 4.791,4.244 9.573,5.589 2.27,0.643 4.835,1.171 7.607,1.611 23.274,3.709 61.159,0.998 61.159,0.998 0.061,-0.006 0.124,-0.012 0.186,-0.035 4.907,-1.268 6.372,-40.564 3.59,-43.379 l -0.008,-0.009 c -0.285,-0.279 -1.183,-0.579 -2.591,-0.898 -1.103,-0.25 -2.513,-0.507 -4.178,-0.767 m -12.991,3.638 c 0.107,0.647 -0.065,1.42 -0.107,2.069 -0.046,0.727 -0.092,1.445 -0.138,2.173 -0.042,0.805 -0.329,1.432 -1.248,1.376 -1.051,-0.071 -4.29,0.36 -4.171,-1.444 0.085,-1.323 0.171,-2.645 0.257,-3.976 0.081,-1.227 1.233,-1.072 2.126,-1.017 0.491,0.034 1.71,-0.088 2.515,0.147 0.398,0.118 0.705,0.318 0.766,0.672 m 10.351,1.208 c 0.08,-1.216 1.233,-1.07 2.135,-1.006 0.482,0.025 1.701,-0.097 2.507,0.137 0.406,0.118 0.703,0.326 0.764,0.673 0.117,0.648 -0.064,1.42 -0.106,2.068 -0.046,0.727 -0.092,1.455 -0.129,2.173 -0.05,0.806 -0.337,1.433 -1.248,1.377 -1.061,-0.063 -4.299,0.36 -4.18,-1.436 0.086,-1.331 0.171,-2.654 0.257,-3.986 m -2.477,-0.698 c 0.117,0.639 -0.055,1.421 -0.097,2.061 -0.046,0.726 -0.093,1.454 -0.139,2.18 -0.05,0.798 -0.328,1.434 -1.248,1.368 -1.051,-0.062 -4.29,0.37 -4.171,-1.435 0.086,-1.322 0.172,-2.654 0.257,-3.977 0.072,-1.226 1.225,-1.07 2.127,-1.015 0.49,0.034 1.7,-0.089 2.515,0.146 0.397,0.117 0.695,0.318 0.756,0.672 m -15.994,3.23 c -0.049,0.797 -0.328,1.433 -1.248,1.369 -1.059,-0.064 -4.29,0.368 -4.179,-1.437 0.086,-1.331 0.172,-2.654 0.257,-3.976 0.081,-1.227 1.232,-1.071 2.134,-1.016 0.483,0.025 1.701,-0.088 2.515,0.147 0.399,0.109 0.696,0.317 0.757,0.671 0.116,0.639 -0.055,1.412 -0.097,2.061 -0.056,0.726 -0.101,1.454 -0.139,2.181 M 36.601,8.594 C 39.013,9.87 37.006,15.76 34.458,18.318 31.91,20.876 1.24,15.9 1.24,15.9 -0.65,14.88 -0.421,10.604 1.16,7.196 1.438,6.56 1.786,5.954 2.166,5.402 4.197,2.475 25.145,5.774 33.422,7.684 c 1.642,0.375 2.777,0.696 3.179,0.91"
                   style="fill:#4b4c9f;fill-opacity:1;fill-rule:nonzero;stroke:none"
                   id="path49" /></g><g
                 transform="translate(32.5884,35.6035)"
                 id="g55"><path
                   d="M 0,0 0.138,-2.69 C 0.172,-3.348 -0.327,-3.9 -0.976,-3.935 L -2.79,-4.027 c -0.648,-0.034 -1.201,0.465 -1.235,1.123 L -4.191,0.33 c 1.079,-0.138 2.498,-0.224 4.188,-0.277 z"
                   style="fill:#e58c3c;fill-opacity:1;fill-rule:nonzero;stroke:none"
                   id="path53" /></g><g
                 transform="translate(103.4785,83.0889)"
                 id="g59"><path
                   d="m 0,0 c 0.748,-2.923 4.884,-34.181 3.707,-36.939 -1.138,-2.661 -4.508,-4.108 -4.724,-4.189 2.783,2.815 1.318,42.11 -3.589,43.378 0,0 3.849,0.682 4.606,-2.25"
                   style="fill:#e58c3c;fill-opacity:1;fill-rule:nonzero;stroke:none"
                   id="path57" /></g><g
                 transform="translate(99.8633,41.0537)"
                 id="g63"><path
                   d="m 0,0 0.215,-4.189 c 0.034,-0.649 -0.465,-1.21 -1.113,-1.244 l -1.815,-0.093 c -0.648,-0.034 -1.202,0.474 -1.235,1.123 l -0.166,3.243 -0.065,0.392 C -2.514,-0.507 -1.104,-0.25 0,0"
                   style="fill:#e58c3c;fill-opacity:1;fill-rule:nonzero;stroke:none"
                   id="path61" /></g><g
                 transform="translate(97.1836,49.0811)"
                 id="g67"><path
                   d="m 0,0 c 0.004,-0.07 -0.011,-0.133 -0.025,-0.195 -0.037,-0.117 -0.103,-0.216 -0.188,-0.283 -0.135,-0.103 -0.317,-0.138 -0.478,-0.094 -0.161,0.045 -0.29,0.17 -0.36,0.324 -0.06,0.155 -0.053,0.34 0.029,0.485 C -0.895,0.472 -0.61,0.592 -0.359,0.5 -0.27,0.46 -0.187,0.412 -0.131,0.336 -0.057,0.243 -0.006,0.122 0,0"
                   style="fill:#efeef4;fill-opacity:1;fill-rule:nonzero;stroke:none"
                   id="path65" /></g><g
                 transform="translate(97.1836,49.0811)"
                 id="g71"><path
                   d="M 0,0 C -0.006,0.122 -0.057,0.243 -0.131,0.336 -0.187,0.412 -0.27,0.46 -0.359,0.5 -0.61,0.592 -0.895,0.472 -1.022,0.237 c -0.082,-0.145 -0.089,-0.33 -0.029,-0.485 0.07,-0.154 0.199,-0.279 0.36,-0.324 0.161,-0.044 0.343,-0.009 0.478,0.094 0.085,0.067 0.151,0.166 0.188,0.283 C -0.011,-0.133 0.004,-0.07 0,0 M -0.216,1.474 C 0.695,1.529 0.982,0.902 1.032,0.097 1.069,-0.622 1.115,-1.35 1.161,-2.076 1.203,-2.725 1.384,-3.497 1.268,-4.145 1.206,-4.491 0.909,-4.699 0.503,-4.817 -0.303,-5.052 -1.521,-4.93 -2.004,-4.954 c -0.902,-0.065 -2.055,-0.211 -2.135,1.006 -0.086,1.332 -0.171,2.654 -0.257,3.985 -0.119,1.796 3.12,1.373 4.18,1.437"
                   style="fill:#ffffff;fill-opacity:1;fill-rule:nonzero;stroke:none"
                   id="path69" /></g><g
                 transform="translate(96.082,59.9219)"
                 id="g75"><path
                   d="m 0,0 c 0.014,-0.272 -0.024,-0.547 -0.107,-0.806 -0.145,-0.456 -0.421,-0.874 -0.802,-1.166 -0.567,-0.433 -1.333,-0.578 -2.019,-0.393 -0.686,0.184 -1.274,0.69 -1.545,1.335 -0.27,0.645 -0.222,1.413 0.125,2.019 0.547,0.977 1.771,1.453 2.836,1.069 C -1.136,1.928 -0.79,1.69 -0.537,1.387 -0.209,0.999 -0.026,0.508 0,0"
                   style="fill:#ffffff;fill-opacity:1;fill-rule:nonzero;stroke:none"
                   id="path73" /></g><g
                 transform="translate(87.874,48.4619)"
                 id="g79"><path
                   d="M 0,0 C 0.128,0.235 0.412,0.347 0.663,0.254 0.753,0.223 0.835,0.166 0.892,0.09 0.967,-0.003 1.017,-0.124 1.023,-0.246 1.018,-0.309 1.013,-0.379 0.998,-0.441 0.959,-0.549 0.895,-0.648 0.811,-0.723 0.675,-0.826 0.492,-0.862 0.332,-0.818 0.171,-0.773 0.042,-0.648 -0.027,-0.493 -0.088,-0.339 -0.08,-0.153 0,0"
                   style="fill:#efeef4;fill-opacity:1;fill-rule:nonzero;stroke:none"
                   id="path77" /></g><g
                 transform="translate(88.5371,48.7158)"
                 id="g83"><path
                   d="m 0,0 c -0.251,0.093 -0.535,-0.019 -0.663,-0.254 -0.08,-0.153 -0.088,-0.339 -0.027,-0.493 0.069,-0.155 0.198,-0.28 0.359,-0.325 0.16,-0.044 0.343,-0.008 0.478,0.095 0.084,0.075 0.149,0.174 0.188,0.282 C 0.35,-0.633 0.354,-0.562 0.36,-0.5 0.354,-0.378 0.304,-0.257 0.229,-0.164 0.172,-0.088 0.09,-0.031 0,0 M -3.624,-0.107 C -3.743,1.697 -0.504,1.266 0.547,1.328 1.467,1.394 1.745,0.758 1.795,-0.04 1.841,-0.767 1.888,-1.494 1.934,-2.221 1.976,-2.86 2.147,-3.643 2.03,-4.281 1.97,-4.636 1.672,-4.836 1.274,-4.953 0.46,-5.188 -0.75,-5.065 -1.24,-5.1 c -0.903,-0.054 -2.055,-0.211 -2.127,1.016 -0.085,1.322 -0.171,2.654 -0.257,3.977"
                   style="fill:#ffffff;fill-opacity:1;fill-rule:nonzero;stroke:none"
                   id="path81" /></g><g
                 transform="translate(85.3193,61.2402)"
                 id="g87"><path
                   d="m 0,0 c 0.581,-0.717 0.909,-1.623 0.957,-2.552 0.017,-0.5 -0.036,-1.004 -0.179,-1.485 -0.256,-0.84 -0.753,-1.595 -1.428,-2.13 -0.996,-0.79 -2.363,-1.062 -3.575,-0.729 -1.221,0.341 -2.254,1.282 -2.737,2.47 -0.482,1.179 -0.396,2.589 0.215,3.701 0.963,1.782 3.124,2.657 5.022,1.954 C -1.061,0.974 -0.45,0.558 0,0 m -1.509,-1.422 c 0.023,0.08 0.035,0.169 0.03,0.257 -0.007,0.157 -0.069,0.321 -0.163,0.439 -0.084,0.102 -0.184,0.175 -0.3,0.213 -0.331,0.124 -0.703,-0.027 -0.871,-0.335 -0.104,-0.189 -0.126,-0.436 -0.037,-0.642 0.08,-0.207 0.265,-0.365 0.47,-0.425 0.214,-0.059 0.448,-0.012 0.626,0.12 0.109,0.094 0.199,0.231 0.245,0.373"
                   style="fill:#ffffff;fill-opacity:1;fill-rule:nonzero;stroke:none"
                   id="path85" /></g><g
                 transform="translate(83.6777,60.5146)"
                 id="g91"><path
                   d="m 0,0 c 0.094,-0.118 0.155,-0.282 0.163,-0.439 0.005,-0.088 -0.008,-0.177 -0.03,-0.257 -0.046,-0.143 -0.136,-0.28 -0.245,-0.373 -0.178,-0.132 -0.412,-0.179 -0.626,-0.12 -0.205,0.059 -0.39,0.217 -0.47,0.424 -0.09,0.206 -0.067,0.453 0.037,0.643 0.168,0.308 0.539,0.459 0.87,0.335 C -0.185,0.175 -0.084,0.102 0,0"
                   style="fill:#efeef4;fill-opacity:1;fill-rule:nonzero;stroke:none"
                   id="path89" /></g><g
                 transform="translate(81.0869,48.1572)"
                 id="g95"><path
                   d="M 0,0 C 0.075,-0.093 0.117,-0.214 0.123,-0.337 0.126,-0.397 0.121,-0.469 0.098,-0.531 0.068,-0.638 0.003,-0.738 -0.09,-0.813 c -0.126,-0.103 -0.308,-0.139 -0.47,-0.094 -0.16,0.044 -0.298,0.169 -0.359,0.324 -0.069,0.154 -0.053,0.34 0.027,0.493 0.129,0.236 0.413,0.347 0.664,0.254 C -0.139,0.134 -0.065,0.076 0,0"
                   style="fill:#efeef4;fill-opacity:1;fill-rule:nonzero;stroke:none"
                   id="path93" /></g><g
                 transform="translate(82.5869,45.9932)"
                 id="g99"><path
                   d="M 0,0 C 0.042,-0.648 0.214,-1.422 0.106,-2.068 0.046,-2.423 -0.261,-2.623 -0.659,-2.74 -1.464,-2.976 -2.684,-2.854 -3.174,-2.888 -4.067,-2.942 -5.219,-3.098 -5.3,-1.871 -5.386,-0.54 -5.472,0.782 -5.557,2.105 -5.676,3.909 -2.438,3.479 -1.386,3.55 -0.467,3.605 -0.18,2.979 -0.138,2.173 -0.092,1.445 -0.046,0.728 0,0 M -1.377,1.827 C -1.383,1.95 -1.425,2.071 -1.5,2.164 -1.565,2.24 -1.639,2.298 -1.728,2.328 -1.979,2.421 -2.263,2.31 -2.392,2.074 -2.472,1.921 -2.488,1.735 -2.419,1.581 -2.358,1.426 -2.22,1.301 -2.06,1.257 c 0.162,-0.045 0.344,-0.009 0.47,0.094 0.093,0.075 0.158,0.175 0.188,0.282 0.023,0.062 0.028,0.134 0.025,0.194"
                   style="fill:#ffffff;fill-opacity:1;fill-rule:nonzero;stroke:none"
                   id="path97" /></g><g
                 transform="translate(86.7158,68.6064)"
                 id="g103"><path
                   d="m 0,0 c -0.726,-0.072 -1.469,-0.146 -2.221,-0.22 -0.874,-0.089 -1.758,-0.169 -2.65,-0.25 -1.557,-0.141 -3.132,-0.266 -4.656,-0.362 -0.649,-0.042 -1.296,-0.084 -1.919,-0.116 0,0 -0.366,4.199 -0.542,4.744 -0.137,0.441 -1.046,0.517 -1.914,0.473 l -0.256,2.069 C -5.051,7.483 8.912,9.053 10.116,8.034 11.917,6.509 11.266,1.387 10.683,1.287 10.612,1.274 10.071,1.194 9.173,1.078 9.146,1.076 9.111,1.074 9.076,1.064 8.465,0.988 7.706,0.888 6.823,0.781 6.16,0.694 5.426,0.613 4.64,0.52 3.854,0.426 3.024,0.331 2.15,0.233 1.46,0.154 0.743,0.082 0,0"
                   style="fill:#ffffff;fill-opacity:1;fill-rule:nonzero;stroke:none"
                   id="path101" /></g><g
                 transform="translate(75.2695,67.6582)"
                 id="g107"><path
                   d="m 0,0 c -1.156,-0.06 -2.262,-0.099 -3.289,-0.125 0,0 -0.724,5.192 0.256,5.295 0.183,0.018 0.376,0.037 0.577,0.047 0.868,0.045 1.777,-0.031 1.914,-0.473 C -0.365,4.2 0,0 0,0"
                   style="fill:#ffffff;fill-opacity:1;fill-rule:nonzero;stroke:none"
                   id="path105" /></g><g
                 transform="translate(84.4951,68.3867)"
                 id="g111"><path
                   d="m 0,0 c 0.752,0.074 1.495,0.147 2.221,0.22 0.743,0.082 1.46,0.154 2.15,0.233 0.874,0.098 1.703,0.193 2.489,0.286 0.786,0.094 1.521,0.175 2.184,0.262 0.883,0.106 1.642,0.207 2.253,0.283 l 0.326,-1.381 c -8.277,-1.91 -29.226,-5.21 -31.257,-2.282 -0.38,0.551 -0.727,1.158 -1.006,1.794 l 1.417,0.644 c 0.27,-0.452 1.355,-0.713 2.969,-0.832 0.715,-0.06 1.543,-0.088 2.457,-0.085 0.404,-0.005 0.835,-0.001 1.282,0.004 1.028,0.027 2.133,0.066 3.289,0.125 0.623,0.033 1.271,0.075 1.919,0.117 1.525,0.095 3.1,0.22 4.657,0.362 0.892,0.081 1.776,0.161 2.65,0.25"
                   style="fill:#e58c3c;fill-opacity:1;fill-rule:nonzero;stroke:none"
                   id="path109" /></g><g
                 transform="translate(73.4727,58.6807)"
                 id="g115"><path
                   d="m 0,0 c 0.014,-0.28 -0.016,-0.562 -0.098,-0.84 -0.143,-0.464 -0.42,-0.891 -0.808,-1.201 -0.558,-0.441 -1.331,-0.596 -2.019,-0.402 -0.685,0.184 -1.266,0.716 -1.538,1.388 -0.271,0.662 -0.224,1.456 0.121,2.089 0.546,1.004 1.76,1.496 2.835,1.095 C -1.131,1.99 -0.793,1.753 -0.531,1.44 -0.203,1.036 -0.027,0.526 0,0"
                   style="fill:#ffffff;fill-opacity:1;fill-rule:nonzero;stroke:none"
                   id="path113" /></g><g
                 transform="translate(73.0547,47.6396)"
                 id="g119"><path
                   d="M 0,0 C 0.075,-0.093 0.117,-0.214 0.123,-0.337 0.127,-0.407 0.121,-0.469 0.106,-0.531 0.068,-0.639 0.003,-0.738 -0.081,-0.813 -0.216,-0.917 -0.398,-0.952 -0.56,-0.908 c -0.16,0.045 -0.298,0.169 -0.359,0.324 -0.06,0.155 -0.053,0.34 0.028,0.485 0.128,0.235 0.412,0.355 0.663,0.263 C -0.139,0.133 -0.057,0.076 0,0"
                   style="fill:#efeef4;fill-opacity:1;fill-rule:nonzero;stroke:none"
                   id="path117" /></g><g
                 transform="translate(73.3262,49.0332)"
                 id="g123"><path
                   d="M 0,0 C 0.92,0.064 1.198,-0.571 1.248,-1.369 1.285,-2.096 1.331,-2.823 1.387,-3.55 1.429,-4.198 1.6,-4.972 1.483,-5.61 1.423,-5.965 1.126,-6.173 0.727,-6.281 -0.087,-6.517 -1.306,-6.403 -1.788,-6.429 -2.69,-6.483 -3.842,-6.64 -3.923,-5.413 -4.008,-4.091 -4.094,-2.768 -4.18,-1.437 -4.29,0.368 -1.06,-0.063 0,0 m -0.148,-1.73 c -0.006,0.123 -0.048,0.244 -0.123,0.336 -0.057,0.077 -0.139,0.133 -0.228,0.165 -0.251,0.091 -0.535,-0.029 -0.663,-0.263 -0.081,-0.146 -0.089,-0.33 -0.028,-0.486 0.06,-0.155 0.199,-0.279 0.359,-0.324 0.161,-0.044 0.344,-0.009 0.478,0.095 0.084,0.075 0.15,0.175 0.188,0.282 0.015,0.063 0.02,0.124 0.017,0.195"
                   style="fill:#ffffff;fill-opacity:1;fill-rule:nonzero;stroke:none"
                   id="path121" /></g><g
                 transform="translate(72.2363,72.8281)"
                 id="g127"><path
                   d="m 0,0 c -0.979,-0.103 -0.256,-5.295 -0.256,-5.295 -0.447,-0.005 -0.878,-0.01 -1.282,-0.004 -0.914,-0.003 -1.742,0.025 -2.457,0.085 -1.614,0.119 -2.699,0.38 -2.969,0.831 -0.038,0.06 -0.068,0.129 -0.072,0.199 -0.152,1.785 -0.292,3.289 -0.375,4.225 -0.056,0.586 0.356,1.1 0.941,1.182 1.318,0.182 3.797,0.511 6.791,0.894 L 0.577,0.047 C 0.376,0.037 0.184,0.018 0,0"
                   style="fill:#ffffff;fill-opacity:1;fill-rule:nonzero;stroke:none"
                   id="path125" /></g><g
                 transform="translate(96.832,76.6401)"
                 id="g131"><path
                   d="m 0,0 c -1.204,1.019 -15.167,-0.551 -24.274,-1.695 -2.995,-0.383 -5.474,-0.712 -6.791,-0.894 -0.585,-0.082 -0.998,-0.596 -0.942,-1.182 0.084,-0.936 0.223,-2.44 0.375,-4.225 0.004,-0.07 0.034,-0.139 0.072,-0.199 l -1.417,-0.644 c -1.581,3.408 -1.809,7.685 0.081,8.705 0,0 30.669,4.976 33.218,2.418 C 2.87,-0.274 4.877,-6.165 2.465,-7.44 2.063,-7.654 0.928,-7.976 -0.714,-8.351 L -1.04,-6.97 c 0.035,0.011 0.07,0.012 0.097,0.014 0.898,0.116 1.439,0.197 1.509,0.209 C 1.149,-6.646 1.801,-1.525 0,0"
                   style="fill:#e58c3c;fill-opacity:1;fill-rule:nonzero;stroke:none"
                   id="path129" /></g><g
                 transform="translate(59.3223,60.415)"
                 id="g135"><path
                   d="m 0,0 c -0.158,3.411 -1.358,6.768 -3.497,9.399 -1.679,2.05 -3.912,3.605 -6.376,4.524 -6.997,2.602 -14.934,-0.626 -18.508,-7.173 -2.249,-4.123 -2.555,-9.297 -0.784,-13.67 1.78,-4.364 5.604,-7.815 10.089,-9.061 4.476,-1.247 9.513,-0.241 13.169,2.663 2.49,1.981 4.324,4.774 5.248,7.844 C -0.126,-3.706 0.095,-1.85 0,0 M -0.837,11.329 C 1.74,8.209 3.184,4.232 3.374,0.19 c 0.103,-2.191 -0.161,-4.402 -0.8,-6.5 -1.114,-3.642 -3.334,-6.956 -6.333,-9.306 -4.41,-3.452 -10.483,-4.652 -15.884,-3.18 -5.402,1.48 -10.015,5.575 -12.152,10.747 -2.139,5.181 -1.759,11.318 0.96,16.212 4.311,7.77 13.886,11.61 22.323,8.528 2.965,-1.087 5.652,-2.926 7.675,-5.362"
                   style="fill:#ffffff;fill-opacity:1;fill-rule:nonzero;stroke:none"
                   id="path133" /></g><g
                 transform="translate(51.3301,59.9697)"
                 id="g139"><path
                   d="m 0,0 c -0.074,1.604 -0.639,3.192 -1.651,4.432 -0.797,0.97 -1.846,1.707 -3.01,2.139 -3.306,1.228 -7.05,-0.3 -8.737,-3.384 -1.06,-1.953 -1.207,-4.394 -0.373,-6.452 0.836,-2.066 2.643,-3.696 4.764,-4.281 2.113,-0.586 4.488,-0.112 6.219,1.26 1.174,0.93 2.038,2.249 2.473,3.694 C -0.06,-1.752 0.045,-0.877 0,0 M 4.495,9.845 C 6.634,7.213 7.834,3.856 7.992,0.445 8.087,-1.404 7.866,-3.261 7.333,-5.028 6.41,-8.099 4.576,-10.892 2.085,-12.873 c -3.656,-2.903 -8.693,-3.909 -13.168,-2.663 -4.485,1.246 -8.31,4.697 -10.089,9.061 -1.771,4.373 -1.466,9.548 0.783,13.671 3.575,6.546 11.512,9.775 18.509,7.173 2.463,-0.92 4.696,-2.475 6.375,-4.524"
                   style="fill:#e58c3c;fill-opacity:1;fill-rule:nonzero;stroke:none"
                   id="path137" /></g><g
                 transform="translate(52.1758,103.0488)"
                 id="g143"><path
                   d="M 0,0 C 0.938,0.048 1.739,-0.667 1.788,-1.604 1.835,-2.542 1.112,-3.344 0.174,-3.392 -0.764,-3.44 -1.565,-2.717 -1.613,-1.779 -1.662,-0.841 -0.938,-0.048 0,0"
                   style="fill:#ffffff;fill-opacity:1;fill-rule:nonzero;stroke:none"
                   id="path141" /></g><g
                 transform="translate(49.6787,64.4019)"
                 id="g147"><path
                   d="M 0,0 C 1.013,-1.24 1.578,-2.828 1.651,-4.432 1.696,-5.309 1.592,-6.184 1.336,-7.024 0.901,-8.469 0.037,-9.789 -1.137,-10.718 c -1.731,-1.372 -4.106,-1.846 -6.218,-1.26 -2.122,0.585 -3.928,2.215 -4.764,4.281 -0.835,2.058 -0.688,4.499 0.372,6.452 1.687,3.083 5.431,4.612 8.737,3.384 C -1.845,1.707 -0.797,0.97 0,0"
                   style="fill:#ffffff;fill-opacity:1;fill-rule:nonzero;stroke:none"
                   id="path145" /></g><g
                 transform="translate(37.5269,84.377)"
                 id="g151"><path
                   d="m 0,0 c -2.772,-0.441 -5.337,-0.968 -7.607,-1.612 0,0 -0.631,2.2 1.015,3.524 0.354,0.281 0.824,0.534 1.431,0.706 2.07,0.598 3.434,0.035 4.244,-0.837 C -0.406,1.236 -0.117,0.565 0,0"
                   style="fill:#e58c3c;fill-opacity:1;fill-rule:nonzero;stroke:none"
                   id="path149" /></g><g
                 transform="translate(15.6094,100.8018)"
                 id="g155"><path
                   d="M 0,0 C 0.938,0.048 1.731,-0.676 1.779,-1.614 1.798,-1.982 1.702,-2.33 1.522,-2.611 1.238,-3.065 0.744,-3.372 0.175,-3.401 -0.763,-3.449 -1.565,-2.726 -1.613,-1.788 -1.661,-0.85 -0.938,-0.048 0,0"
                   style="fill:#ffffff;fill-opacity:1;fill-rule:nonzero;stroke:none"
                   id="path153" /></g></g></g></g><g
           id="g161"
           transform="translate(98.6904,85.3521)"><path
             d="m 0,0 c 0,0 -71.082,5.083 -78.344,-8.198 -1.606,-2.939 -0.999,-38.28 6.274,-40.873 7.274,-2.592 73.014,2.871 75.838,5.654 C 6.591,-40.636 5.056,-0.302 0,0 Z"
             style="fill:none;stroke:#000000;stroke-width:1;stroke-linecap:round;stroke-linejoin:miter;stroke-miterlimit:10;stroke-dasharray:none;stroke-opacity:1"
             id="path163" /></g><g
           id="g165"
           transform="translate(98.873,85.3193)"><path
             d="m 0,0 c 0,0 3.849,0.679 4.603,-2.248 0.754,-2.927 4.886,-34.188 3.71,-36.94 -1.177,-2.751 -4.728,-4.197 -4.728,-4.197"
             style="fill:none;stroke:#000000;stroke-width:1;stroke-linecap:round;stroke-linejoin:miter;stroke-miterlimit:10;stroke-dasharray:none;stroke-opacity:1"
             id="path167" /></g><g
           id="g169"
           transform="translate(29.9238,82.7451)"><path
             d="M 0,0 C 0,0 -0.941,3.256 2.442,4.227 5.825,5.197 7.312,3.083 7.604,1.612"
             style="fill:none;stroke:#000000;stroke-width:1;stroke-linecap:round;stroke-linejoin:miter;stroke-miterlimit:10;stroke-dasharray:none;stroke-opacity:1"
             id="path171" /></g><g
           id="g173"
           transform="translate(30.9385,86.2632)"><path
             d="M 0,0 C 0,0 -12.822,9.726 -13.814,11.927"
             style="fill:none;stroke:#000000;stroke-width:1;stroke-linecap:round;stroke-linejoin:miter;stroke-miterlimit:10;stroke-dasharray:none;stroke-opacity:1"
             id="path175" /></g><g
           id="g177"
           transform="translate(36.6064,86.1392)"><path
             d="M 0,0 C 0,0 9.729,10.091 14.08,14.159"
             style="fill:none;stroke:#000000;stroke-width:1;stroke-linecap:round;stroke-linejoin:miter;stroke-miterlimit:10;stroke-dasharray:none;stroke-opacity:1"
             id="path179" /></g><g
           id="g181"
           transform="translate(53.9604,101.4185)"><path
             d="m 0,0 c 0.048,-0.938 -0.673,-1.737 -1.611,-1.785 -0.938,-0.048 -1.737,0.673 -1.785,1.611 -0.048,0.938 0.673,1.737 1.611,1.785 C -0.848,1.659 -0.048,0.938 0,0 Z"
             style="fill:none;stroke:#000000;stroke-width:1;stroke-linecap:round;stroke-linejoin:miter;stroke-miterlimit:10;stroke-dasharray:none;stroke-opacity:1"
             id="path183" /></g><g
           id="g185"
           transform="translate(17.3916,99.168)"><path
             d="m 0,0 c 0.048,-0.938 -0.673,-1.737 -1.611,-1.786 -0.938,-0.048 -1.737,0.674 -1.785,1.611 -0.048,0.938 0.673,1.737 1.611,1.786 C -0.847,1.659 -0.048,0.937 0,0 Z"
             style="fill:none;stroke:#000000;stroke-width:1;stroke-linecap:round;stroke-linejoin:miter;stroke-miterlimit:10;stroke-dasharray:none;stroke-opacity:1"
             id="path187" /></g><g
           id="g189"
           transform="translate(28.394,35.918)"><path
             d="M 0,0 0.167,-3.244 C 0.2,-3.895 0.754,-4.396 1.405,-4.361 l 1.81,0.092 c 0.651,0.034 1.151,0.588 1.118,1.239 l -0.139,2.696"
             style="fill:none;stroke:#000000;stroke-width:1;stroke-linecap:round;stroke-linejoin:miter;stroke-miterlimit:10;stroke-dasharray:none;stroke-opacity:1"
             id="path191" /></g><g
           id="g193"
           transform="translate(95.75,39.8721)"><path
             d="M 0,0 0.167,-3.245 C 0.2,-3.896 0.755,-4.396 1.405,-4.362 l 1.811,0.093 c 0.65,0.034 1.15,0.587 1.117,1.239 L 4.118,1.163"
             style="fill:none;stroke:#000000;stroke-width:1;stroke-linecap:round;stroke-linejoin:miter;stroke-miterlimit:10;stroke-dasharray:none;stroke-opacity:1"
             id="path195" /></g><g
           id="g197"
           transform="translate(51.3301,59.9463)"><path
             d="m 0,0 c 0.042,-0.872 -0.06,-1.751 -0.311,-2.586 -0.436,-1.45 -1.302,-2.768 -2.478,-3.702 -1.726,-1.37 -4.103,-1.847 -6.219,-1.259 -2.116,0.588 -3.924,2.22 -4.761,4.281 -0.838,2.061 -0.692,4.504 0.371,6.452 1.686,3.09 5.435,4.614 8.737,3.386 C -3.5,6.14 -2.444,5.404 -1.653,4.435 -0.641,3.194 -0.077,1.609 0,0 Z"
             style="fill:none;stroke:#000000;stroke-width:1;stroke-linecap:round;stroke-linejoin:miter;stroke-miterlimit:10;stroke-dasharray:none;stroke-opacity:1"
             id="path199" /></g><g
           id="g201"
           transform="translate(73.4756,58.6602)"><path
             d="m 0,0 c 0.014,-0.283 -0.02,-0.568 -0.101,-0.839 -0.141,-0.47 -0.422,-0.897 -0.803,-1.2 -0.561,-0.445 -1.331,-0.6 -2.018,-0.408 -0.686,0.19 -1.272,0.719 -1.545,1.387 -0.271,0.669 -0.223,1.461 0.121,2.093 0.547,1.002 1.763,1.497 2.834,1.099 C -1.136,1.991 -0.793,1.753 -0.536,1.438 -0.208,1.036 -0.025,0.521 0,0 Z"
             style="fill:none;stroke:#000000;stroke-width:1;stroke-linecap:round;stroke-linejoin:miter;stroke-miterlimit:10;stroke-dasharray:none;stroke-opacity:1"
             id="path203" /></g><g
           id="g205"
           transform="translate(83.8408,60.0547)"><path
             d="m 0,0 c 0.005,-0.087 -0.006,-0.175 -0.03,-0.258 -0.044,-0.144 -0.13,-0.276 -0.247,-0.369 -0.173,-0.137 -0.41,-0.185 -0.62,-0.126 -0.211,0.059 -0.392,0.222 -0.476,0.427 -0.083,0.206 -0.068,0.449 0.037,0.643 0.169,0.308 0.542,0.46 0.871,0.338 C -0.349,0.611 -0.243,0.538 -0.164,0.441 -0.063,0.318 -0.008,0.16 0,0 Z"
             style="fill:none;stroke:#000000;stroke-width:1;stroke-linecap:round;stroke-linejoin:miter;stroke-miterlimit:10;stroke-dasharray:none;stroke-opacity:1"
             id="path207" /></g><g
           id="g209"
           transform="translate(73.1826,47.2813)"><path
             d="m 0,0 c 0.003,-0.066 -0.005,-0.133 -0.023,-0.196 -0.034,-0.11 -0.1,-0.21 -0.189,-0.281 -0.131,-0.104 -0.31,-0.14 -0.472,-0.095 -0.16,0.045 -0.296,0.168 -0.361,0.324 -0.063,0.156 -0.052,0.342 0.028,0.489 0.128,0.235 0.413,0.351 0.663,0.257 C -0.266,0.466 -0.186,0.41 -0.126,0.336 -0.049,0.242 -0.006,0.122 0,0 Z"
             style="fill:none;stroke:#000000;stroke-width:0.75;stroke-linecap:butt;stroke-linejoin:miter;stroke-miterlimit:10;stroke-dasharray:none;stroke-opacity:1"
             id="path211" /></g><g
           id="g213"
           transform="translate(81.2119,47.7998)"><path
             d="m 0,0 c 0.003,-0.065 -0.005,-0.133 -0.024,-0.195 -0.033,-0.111 -0.099,-0.21 -0.188,-0.282 -0.131,-0.103 -0.311,-0.139 -0.472,-0.095 -0.16,0.045 -0.297,0.169 -0.361,0.325 -0.063,0.156 -0.052,0.342 0.028,0.489 0.128,0.235 0.413,0.35 0.663,0.257 C -0.266,0.466 -0.186,0.41 -0.126,0.337 -0.049,0.243 -0.006,0.122 0,0 Z"
             style="fill:none;stroke:#000000;stroke-width:0.75;stroke-linecap:butt;stroke-linejoin:miter;stroke-miterlimit:10;stroke-dasharray:none;stroke-opacity:1"
             id="path215" /></g><g
           id="g217"
           transform="translate(88.8936,48.1953)"><path
             d="m 0,0 c 0.004,-0.066 -0.004,-0.133 -0.023,-0.196 -0.034,-0.111 -0.099,-0.21 -0.188,-0.282 -0.131,-0.103 -0.311,-0.139 -0.472,-0.095 -0.161,0.045 -0.297,0.169 -0.361,0.325 -0.063,0.156 -0.053,0.342 0.028,0.489 0.128,0.235 0.412,0.35 0.662,0.257 C -0.266,0.465 -0.186,0.409 -0.125,0.336 -0.049,0.242 -0.006,0.121 0,0 Z"
             style="fill:none;stroke:#000000;stroke-width:0.75;stroke-linecap:butt;stroke-linejoin:miter;stroke-miterlimit:10;stroke-dasharray:none;stroke-opacity:1"
             id="path219" /></g><g
           id="g221"
           transform="translate(97.1807,49.0576)"><path
             d="m 0,0 c 0.003,-0.066 -0.004,-0.133 -0.023,-0.196 -0.034,-0.11 -0.099,-0.21 -0.188,-0.281 -0.131,-0.103 -0.311,-0.139 -0.472,-0.095 -0.161,0.045 -0.297,0.169 -0.361,0.325 -0.063,0.156 -0.053,0.341 0.028,0.489 0.128,0.235 0.412,0.35 0.662,0.257 C -0.266,0.466 -0.186,0.41 -0.125,0.337 -0.049,0.242 -0.006,0.122 0,0 Z"
             style="fill:none;stroke:#000000;stroke-width:0.75;stroke-linecap:butt;stroke-linejoin:miter;stroke-miterlimit:10;stroke-dasharray:none;stroke-opacity:1"
             id="path223" /></g><g
           id="g225"
           transform="translate(96.0801,59.9023)"><path
             d="m 0,0 c 0.013,-0.273 -0.021,-0.55 -0.103,-0.812 -0.141,-0.454 -0.423,-0.868 -0.805,-1.161 -0.561,-0.43 -1.332,-0.581 -2.018,-0.398 -0.685,0.183 -1.271,0.694 -1.542,1.339 -0.27,0.645 -0.221,1.412 0.124,2.022 0.549,0.97 1.766,1.449 2.836,1.067 C -1.132,1.922 -0.79,1.692 -0.534,1.389 -0.206,1 -0.024,0.504 0,0 Z"
             style="fill:none;stroke:#000000;stroke-width:1;stroke-linecap:round;stroke-linejoin:miter;stroke-miterlimit:10;stroke-dasharray:none;stroke-opacity:1"
             id="path227" /></g><g
           id="g229"
           transform="translate(86.2734,58.666)"><path
             d="m 0,0 c 0.024,-0.501 -0.034,-1.007 -0.179,-1.487 -0.25,-0.833 -0.748,-1.592 -1.424,-2.128 -0.993,-0.788 -2.36,-1.062 -3.577,-0.724 -1.216,0.338 -2.256,1.276 -2.737,2.461 -0.481,1.186 -0.397,2.59 0.214,3.71 0.969,1.776 3.124,2.653 5.023,1.946 C -2.012,3.53 -1.404,3.107 -0.95,2.55 -0.368,1.837 -0.044,0.925 0,0 Z"
             style="fill:none;stroke:#000000;stroke-width:1;stroke-linecap:round;stroke-linejoin:miter;stroke-miterlimit:10;stroke-dasharray:none;stroke-opacity:1"
             id="path231" /></g><g
           id="g233"
           transform="translate(59.3262,60.3955)"><path
             d="m 0,0 c 0.089,-1.848 -0.126,-3.71 -0.658,-5.479 -0.924,-3.071 -2.759,-5.864 -5.249,-7.84 -3.656,-2.904 -8.692,-3.911 -13.174,-2.667 -4.482,1.245 -8.311,4.702 -10.085,9.068 -1.774,4.365 -1.466,9.54 0.786,13.666 3.571,6.544 11.511,9.773 18.507,7.171 2.46,-0.914 4.697,-2.473 6.371,-4.525 C -1.358,6.766 -0.163,3.408 0,0 Z"
             style="fill:none;stroke:#000000;stroke-width:1;stroke-linecap:round;stroke-linejoin:miter;stroke-miterlimit:10;stroke-dasharray:none;stroke-opacity:1"
             id="path235" /></g><g
           id="g237"
           transform="translate(62.6968,60.582)"><path
             d="m 0,0 c 0.105,-2.191 -0.156,-4.401 -0.799,-6.499 -1.117,-3.645 -3.332,-6.959 -6.335,-9.306 -4.412,-3.448 -10.484,-4.648 -15.886,-3.176 -5.402,1.471 -10.015,5.569 -12.149,10.746 -2.135,5.176 -1.757,11.315 0.961,16.21 4.312,7.768 13.888,11.605 22.319,8.526 2.965,-1.082 5.66,-2.928 7.677,-5.362 C -1.631,8.024 -0.193,4.042 0,0 Z"
             style="fill:none;stroke:#000000;stroke-width:1;stroke-linecap:round;stroke-linejoin:miter;stroke-miterlimit:10;stroke-dasharray:none;stroke-opacity:1"
             id="path239" /></g><g
           id="g241"
           transform="translate(63.938,76.4819)"><path
             d="m 0,0 c 0,0 30.667,4.98 33.216,2.42 2.548,-2.561 4.553,-8.444 2.147,-9.722 C 32.957,-8.579 3.355,-13.999 0.924,-10.499 -1.508,-6.999 -2.245,-1.214 0,0 Z"
             style="fill:none;stroke:#000000;stroke-width:1;stroke-linecap:round;stroke-linejoin:miter;stroke-miterlimit:10;stroke-dasharray:none;stroke-opacity:1"
             id="path243" /></g><g
           id="g245"
           transform="translate(64.8262,72.8433)"><path
             d="M 0,0 C -0.054,0.586 0.36,1.106 0.944,1.186 6.28,1.915 30.406,5.122 32.006,3.771 33.805,2.253 33.152,-2.871 32.572,-2.974 31.991,-3.077 0.644,-7.287 0.376,-4.224 0.22,-2.433 0.085,-0.935 0,0 Z"
             style="fill:none;stroke:#000000;stroke-width:1;stroke-linecap:round;stroke-linejoin:miter;stroke-miterlimit:10;stroke-dasharray:none;stroke-opacity:1"
             id="path247" /></g><g
           id="g249"
           transform="translate(68.2402,67.5874)"><path
             d="M 0,0 C 0,0 0.282,1.989 -0.144,2.792"
             style="fill:none;stroke:#000000;stroke-width:1;stroke-linecap:round;stroke-linejoin:miter;stroke-miterlimit:10;stroke-dasharray:none;stroke-opacity:1"
             id="path251" /></g><g
           id="g253"
           transform="translate(70.6953,67.5054)"><path
             d="M 0,0 C 0,0 -0.226,1.585 -0.687,1.653"
             style="fill:none;stroke:#000000;stroke-width:1;stroke-linecap:round;stroke-linejoin:miter;stroke-miterlimit:10;stroke-dasharray:none;stroke-opacity:1"
             id="path255" /></g><g
           id="g257"
           transform="translate(71.9785,67.5132)"><path
             d="M 0,0 C 0,0 -0.725,5.194 0.259,5.296 1.242,5.399 2.578,5.416 2.752,4.871 2.927,4.326 3.289,0.124 3.289,0.124"
             style="fill:none;stroke:#000000;stroke-width:1;stroke-linecap:round;stroke-linejoin:miter;stroke-miterlimit:10;stroke-dasharray:none;stroke-opacity:1"
             id="path259" /></g><g
           id="g261"
           transform="translate(77.1846,67.7358)"><path
             d="M 0,0 C 0,0 0.304,1.221 -0.389,1.881"
             style="fill:none;stroke:#000000;stroke-width:1;stroke-linecap:round;stroke-linejoin:miter;stroke-miterlimit:10;stroke-dasharray:none;stroke-opacity:1"
             id="path263" /></g><g
           id="g265"
           transform="translate(79.5176,67.958)"><path
             d="M 0,0 C 0,0 0.329,2.859 -0.605,3.928"
             style="fill:none;stroke:#000000;stroke-width:1;stroke-linecap:round;stroke-linejoin:miter;stroke-miterlimit:10;stroke-dasharray:none;stroke-opacity:1"
             id="path267" /></g><g
           id="g269"
           transform="translate(81.8359,68.0771)"><path
             d="M 0,0 C 0,0 0.286,1.008 -0.219,1.678"
             style="fill:none;stroke:#000000;stroke-width:1;stroke-linecap:round;stroke-linejoin:miter;stroke-miterlimit:10;stroke-dasharray:none;stroke-opacity:1"
             id="path271" /></g><g
           id="g273"
           transform="translate(84.4971,68.3633)"><path
             d="M 0,0 C 0,0 0.146,1.016 -0.282,1.525"
             style="fill:none;stroke:#000000;stroke-width:1;stroke-linecap:round;stroke-linejoin:miter;stroke-miterlimit:10;stroke-dasharray:none;stroke-opacity:1"
             id="path275" /></g><g
           id="g277"
           transform="translate(86.7178,68.5889)"><path
             d="M 0,0 C 0,0 0.265,0.893 0.054,1.431"
             style="fill:none;stroke:#000000;stroke-width:1;stroke-linecap:round;stroke-linejoin:miter;stroke-miterlimit:10;stroke-dasharray:none;stroke-opacity:1"
             id="path279" /></g><g
           id="g281"
           transform="translate(88.8652,68.8208)"><path
             d="M 0,0 C 0,0 -0.108,3.535 -0.523,4.136"
             style="fill:none;stroke:#000000;stroke-width:1;stroke-linecap:round;stroke-linejoin:miter;stroke-miterlimit:10;stroke-dasharray:none;stroke-opacity:1"
             id="path283" /></g><g
           id="g285"
           transform="translate(91.3613,69.1055)"><path
             d="M 0,0 C 0,0 0.202,1.014 0.041,1.646"
             style="fill:none;stroke:#000000;stroke-width:1;stroke-linecap:round;stroke-linejoin:miter;stroke-miterlimit:10;stroke-dasharray:none;stroke-opacity:1"
             id="path287" /></g><g
           id="g289"
           transform="translate(93.5381,69.3672)"><path
             d="M 0,0 C 0,0 0.17,1.064 -0.346,1.477"
             style="fill:none;stroke:#000000;stroke-width:1;stroke-linecap:round;stroke-linejoin:miter;stroke-miterlimit:10;stroke-dasharray:none;stroke-opacity:1"
             id="path291" /></g><g
           id="g293"
           transform="translate(95.8906,69.665)"><path
             d="M 0,0 C 0,0 0.015,3.607 0.412,4.415"
             style="fill:none;stroke:#000000;stroke-width:1;stroke-linecap:round;stroke-linejoin:miter;stroke-miterlimit:10;stroke-dasharray:none;stroke-opacity:1"
             id="path295" /></g><g
           id="g297"
           transform="translate(74.0508,42.7256)"><path
             d="M 0,0 C -0.81,-0.235 -2.026,-0.114 -2.512,-0.145 -3.41,-0.2 -4.562,-0.355 -4.643,0.87 -4.728,2.196 -4.813,3.521 -4.899,4.848 -5.017,6.65 -1.779,6.221 -0.726,6.288 0.193,6.346 0.476,5.716 0.523,4.913 0.565,4.188 0.612,3.463 0.659,2.737 0.702,2.092 0.874,1.313 0.762,0.672 0.7,0.319 0.4,0.116 0,0 Z"
             style="fill:none;stroke:#000000;stroke-width:1;stroke-linecap:round;stroke-linejoin:miter;stroke-miterlimit:10;stroke-dasharray:none;stroke-opacity:1"
             id="path299" /></g><g
           id="g301"
           transform="translate(81.9297,43.2314)"><path
             d="m 0,0 c -0.809,-0.234 -2.025,-0.113 -2.512,-0.144 -0.898,-0.055 -2.05,-0.211 -2.13,1.014 -0.086,1.326 -0.171,2.652 -0.256,3.979 -0.118,1.802 3.12,1.373 4.173,1.439 C 0.194,6.347 0.477,5.717 0.523,4.914 0.566,4.188 0.613,3.464 0.66,2.738 0.703,2.093 0.875,1.314 0.763,0.673 0.701,0.32 0.4,0.116 0,0 Z"
             style="fill:none;stroke:#000000;stroke-width:1;stroke-linecap:round;stroke-linejoin:miter;stroke-miterlimit:10;stroke-dasharray:none;stroke-opacity:1"
             id="path303" /></g><g
           id="g305"
           transform="translate(89.8096,43.7383)"><path
             d="M 0,0 C -0.809,-0.234 -2.025,-0.113 -2.512,-0.144 -3.41,-0.2 -4.562,-0.355 -4.642,0.87 L -4.899,4.849 C -5.016,6.65 -1.778,6.222 -0.725,6.288 0.194,6.347 0.477,5.717 0.523,4.914 0.566,4.188 0.613,3.464 0.66,2.738 0.702,2.092 0.875,1.314 0.763,0.673 0.701,0.32 0.4,0.116 0,0 Z"
             style="fill:none;stroke:#000000;stroke-width:1;stroke-linecap:round;stroke-linejoin:miter;stroke-miterlimit:10;stroke-dasharray:none;stroke-opacity:1"
             id="path307" /></g><g
           id="g309"
           transform="translate(97.6895,44.2451)"><path
             d="M 0,0 C -0.809,-0.235 -2.025,-0.114 -2.512,-0.145 -3.41,-0.2 -4.562,-0.355 -4.642,0.87 L -4.899,4.849 C -5.016,6.65 -1.778,6.221 -0.725,6.288 0.194,6.347 0.477,5.717 0.523,4.914 0.566,4.188 0.613,3.463 0.66,2.738 0.702,2.092 0.875,1.313 0.763,0.672 0.701,0.32 0.4,0.116 0,0 Z"
             style="fill:none;stroke:#000000;stroke-width:1;stroke-linecap:round;stroke-linejoin:miter;stroke-miterlimit:10;stroke-dasharray:none;stroke-opacity:1"
             id="path311" /></g></g></g></g></svg>
